<svg width="39" height="43" viewBox="0 0 39 43" fill="none" xmlns="http://www.w3.org/2000/svg">
<path d="M27.4199 40.2161L29.2479 36.5601" stroke="#AF5C0F" stroke-width="3.656" stroke-linecap="round"/>
<path d="M19.1936 25.592C9.65595 25.592 0 28.5397 0 34.171C0 37.9133 4.26242 40.4683 9.91889 41.7629C10.5164 41.8996 11.1994 41.6265 11.6211 41.1818C12.6439 40.1034 11.9601 38.3083 10.5132 37.9689C6.08872 36.9313 3.5771 35.2567 3.5771 34.1721C3.5771 32.5068 9.50562 29.4462 19.1936 29.4462C28.8817 29.4462 34.8112 32.5068 34.8112 34.1721C34.8112 35.2852 32.1642 37.0139 27.5253 38.0422C26.064 38.3661 25.365 40.1753 26.3934 41.2628C26.8115 41.7046 27.4873 41.9791 28.0819 41.8505C33.931 40.5844 38.388 37.9987 38.388 34.171C38.388 28.5397 28.732 25.592 19.1936 25.592Z" fill="#F08A2C"/>
<mask id="mask0" mask-type="alpha" maskUnits="userSpaceOnUse" x="0" y="25" width="39" height="17">
<path d="M19.1936 25.592C9.65595 25.592 0 28.5397 0 34.171C0 37.9133 4.26242 40.4683 9.91889 41.7629C10.5164 41.8996 11.1994 41.6265 11.6211 41.1818C12.6439 40.1034 11.9601 38.3083 10.5132 37.9689C6.08872 36.9313 3.5771 35.2567 3.5771 34.1721C3.5771 32.5068 9.50562 29.4462 19.1936 29.4462C28.8817 29.4462 34.8112 32.5068 34.8112 34.1721C34.8112 35.2852 32.1642 37.0139 27.5253 38.0422C26.064 38.3661 25.365 40.1753 26.3934 41.2628C26.8115 41.7046 27.4873 41.9791 28.0819 41.8505C33.931 40.5844 38.388 37.9987 38.388 34.171C38.388 28.5397 28.732 25.592 19.1936 25.592Z" fill="white"/>
</mask>
<g mask="url(#mask0)">
<path d="M28.334 43.872C31.6853 41.7393 38.3789 38.2586 37.474 38.388C31.076 39.302 26.812 38.5089 26.812 38.5089L25.592 40.0332L28.334 43.872Z" fill="#99500D"/>
</g>
<path d="M27.7206 38.4129C26.7247 38.2469 25.7829 38.9196 25.617 39.9155C25.451 40.9114 26.1237 41.8532 27.1196 42.0191L27.7206 38.4129ZM32.6036 42.9331C33.5995 43.0991 34.5413 42.4264 34.7072 41.4305C34.8732 40.4346 34.2005 39.4928 33.2046 39.3269L32.6036 42.9331ZM27.1196 42.0191L32.6036 42.9331L33.2046 39.3269L27.7206 38.4129L27.1196 42.0191Z" fill="#F08A2C"/>
<path fill-rule="evenodd" clip-rule="evenodd" d="M17.0222 35.6168C18.2159 36.8744 20.1719 36.8744 21.3656 35.6168L32.0288 24.3806C32.5897 23.7898 32.9039 22.994 32.9039 22.1652V3.12343C32.9039 1.40137 31.6906 0 30.1997 0H8.18799C6.69711 0 5.48389 1.40063 5.48389 3.12341V22.1652C5.48389 22.994 5.79814 23.7898 6.35888 24.3806L17.0222 35.6168ZM17.6706 9.47624C16.8292 9.47624 16.1472 10.1834 16.1472 11.0556V17.3731C16.1472 18.2454 16.8292 18.9525 17.6706 18.9525H20.7172C21.5586 18.9525 22.2406 18.2454 22.2406 17.3731V11.0556C22.2406 10.1834 21.5586 9.47624 20.7172 9.47624H17.6706Z" fill="#37A46B"/>
</svg>
