<svg width="14" height="14" viewBox="0 0 14 14" fill="none" xmlns="http://www.w3.org/2000/svg">
<path d="M5.5918 12.5707V13.9921L5.24893 13.7144C5.19595 13.6715 3.93547 12.6456 2.65726 11.1746C0.894012 9.14521 0 7.32357 0 5.76042V5.60548C0 2.51461 2.50847 0 5.5918 0C8.67513 0 11.1836 2.51461 11.1836 5.60548V5.76042C11.1836 5.89169 11.1767 6.02499 11.164 6.15991L10.0705 5.15984C9.84653 2.88048 7.92349 1.09375 5.5918 1.09375C3.11014 1.09375 1.09108 3.11775 1.09108 5.60548V5.76042C1.09108 8.40191 4.48619 11.5996 5.5918 12.5707ZM8.94685 11.7851H10.5834V10.1445H8.94685V11.7851ZM5.5918 3.28125C6.87022 3.28125 7.91035 4.32393 7.91035 5.60548C7.91035 6.88704 6.87022 7.92971 5.5918 7.92971C4.31337 7.92971 3.27324 6.88704 3.27324 5.60548C3.27324 4.32393 4.31337 3.28125 5.5918 3.28125ZM5.5918 4.375C4.91493 4.375 4.36432 4.92696 4.36432 5.60548C4.36432 6.2839 4.91493 6.83596 5.5918 6.83596C6.26855 6.83596 6.81927 6.2839 6.81927 5.60548C6.81927 4.92696 6.26855 4.375 5.5918 4.375ZM13.2647 11.0419L12.9579 10.7614V12.5173C12.9579 13.3349 12.2943 14 11.4787 14H8.02432C7.20871 14 6.54509 13.3349 6.54509 12.5173V10.7614L6.23833 11.0419L5.50304 10.2339L9.75146 6.34857L14 10.2339L13.2647 11.0419ZM11.8669 9.76355L9.75146 7.82907L7.63617 9.76355V12.5171C7.63617 12.7317 7.81027 12.9062 8.02432 12.9062H11.4787C11.6928 12.9062 11.8669 12.7317 11.8669 12.5171V9.76355Z" fill="#42B67A"/>
</svg>
